<svg width="10" height="8" viewBox="0 0 10 8" fill="none" xmlns="http://www.w3.org/2000/svg">
<path d="M3.33329 5.33333L8.24996 0.416666C8.40274 0.263889 8.59718 0.1875 8.83329 0.1875C9.0694 0.1875 9.26385 0.263889 9.41663 0.416666C9.5694 0.569444 9.64579 0.763888 9.64579 1C9.64579 1.23611 9.5694 1.43056 9.41663 1.58333L3.91663 7.08333C3.74996 7.25 3.55551 7.33333 3.33329 7.33333C3.11107 7.33333 2.91663 7.25 2.74996 7.08333L0.583292 4.91667C0.430515 4.76389 0.354126 4.56944 0.354126 4.33333C0.354126 4.09722 0.430515 3.90278 0.583292 3.75C0.73607 3.59722 0.930515 3.52083 1.16663 3.52083C1.40274 3.52083 1.59718 3.59722 1.74996 3.75L3.33329 5.33333Z" fill="white"/>
</svg>
